# xmcd CD database file
#
# Track frame offsets:
#	150
#	23631
#	43867
#	68196
#	94699
#	115752
#	133860
#	154991
#	174847
#	196036
#
# Disc length: 2900 seconds
#
# Revision: 0
# Processed by: cddbd v1.4PL0 Copyright (c) Steve Scherf et al.
# Submitted via: Feurio! 1.65 - http://www.feurio.com
#
DISCID=7d0b520a
DTITLE=Peabo Bryson - I Am Love
DYEAR=1900
DGENRE=R&B
TTITLE0=I Am Love
TTITLE1=Move Your Body
TTITLE2=Split Decision
TTITLE3=Impossible
TTITLE4=There's No Guarantee (Bump)
TTITLE5=Love Is On The Rise
TTITLE6=Let The Feelings Flow
TTITLE7=Get Ready To Cry
TTITLE8=You
TTITLE9=There's No Guarantee
EXTD=
EXTT0=
EXTT1=
EXTT2=
EXTT3=
EXTT4=
EXTT5=
EXTT6=
EXTT7=
EXTT8=
EXTT9=
PLAYORDER=
